# xmcd
#
# Track frame offsets:
#  150
#  63386
#  125469
#  194146
#  261037
#
# Disc length: 4588 seconds
#
# Revision: 0
# Processed by: cddbd v1.5.1PL2 Copyright (c) Steve Scherf et al.
# Submitted via: Collectorz.com_Music_Collector 6.9
#
DISCID=4911ea05
DTITLE=Varios Artistas - Decimania!
DYEAR=2005
DGENRE=
TTITLE0=Realidades
TTITLE1=Fuerza Materna
TTITLE2=De Un Pobre Poeta
TTITLE3=Vivencias
TTITLE4=Controversia Poetica
EXTD=
EXTT0=
EXTT1=
EXTT2=
EXTT3=
EXTT4=
PLAYORDER=
